<svg width="315" height="295" viewBox="0 0 315 295" fill="none" xmlns="http://www.w3.org/2000/svg">
<path d="M76.1301 35.54C100.735 -20.0612 257.168 -9.88663 305.303 62.2978C353.437 134.482 298.426 294.86 249.116 294.86C199.805 294.86 199.805 186.579 179.475 154.779C159.145 122.979 51.5265 91.1471 76.1301 35.54Z" fill="#91FFBD" fill-opacity="0.7"/>
<path d="M34.9711 174.469C48.9172 200.593 73.3466 180.909 104.766 153.578C136.185 126.246 176.01 99.2711 162.06 73.1522C148.111 47.0333 98.0164 50.3623 66.6018 77.6898C35.1872 105.017 21.026 148.347 34.9711 174.469Z" fill="#2B44FF" fill-opacity="0.6"/>
<path d="M295.957 273.367C315.832 273.367 337.757 254.338 337.757 230.087C337.757 205.837 315.832 186.809 295.957 186.809C276.081 186.809 268.692 214.559 268.692 234.449C268.692 254.339 276.083 273.367 295.957 273.367Z" fill="#FF73C6" fill-opacity="0.7"/>
<path d="M91.5333 146.681L95.9393 126.062C93.33 123.234 91.9484 119.486 92.0973 115.641C92.8983 104.183 108.786 106.703 111.876 112.486C114.966 118.269 114.6 132.938 110.605 133.972C109.012 134.384 105.619 133.372 102.165 131.285L104.333 146.685L91.5333 146.681Z" fill="#B28B67"/>
<path d="M94.9563 128.642C93.3503 121.467 88.7733 116.576 89.4723 113.369C89.6876 112.435 90.1457 111.574 90.8003 110.874C91.4549 110.173 92.2828 109.658 93.2003 109.38C93.2003 109.38 94.7643 103.025 103.3 103.972C111.836 104.919 117.037 108.478 114.788 116.306C112.721 116.306 110.225 115.555 106.774 116.841C105.131 117.453 104.424 120.641 104.424 120.641H102.864C102.864 120.641 100.594 116.862 98.3873 117.864C96.1803 118.866 97.3873 122.729 97.3873 122.729L96.6193 128.645L94.9563 128.642Z" fill="#191847"/>
<path d="M73.3984 213.607H114.598L119.998 279.998H58.6664L73.3984 213.607Z" fill="#C5CFD6"/>
<path d="M73.3984 213.607H86.0664L93.6514 279.998H58.6664L73.3984 213.607Z" fill="black" fill-opacity="0.1"/>
<path d="M150.844 274.9C150.31 268.127 149.318 244.679 150.311 233.826C150.73 229.245 151.182 224.887 151.626 221.015C142.101 238.213 126.516 263.365 126.516 263.365L120.374 260.548C120.374 260.548 127.609 236.618 132.239 226.761C137.524 215.508 142.48 205.871 144.566 202.477C147.846 197.138 153.557 199.001 156.574 202.233C160.967 199.585 168.337 202.987 168.332 206.774C168.318 218.106 158.017 271.513 157.474 274.889C157.294 275.72 156.829 276.463 156.16 276.988C155.491 277.513 154.66 277.789 153.809 277.767C153.424 277.782 153.04 277.719 152.68 277.581C152.32 277.444 151.992 277.235 151.714 276.967C151.437 276.699 151.217 276.378 151.068 276.023C150.918 275.667 150.842 275.286 150.844 274.9Z" fill="#B28B67"/>
<path d="M120.814 251.689L141.895 201.554C146.945 193.398 161.105 203.213 159.383 207.943C155.474 218.683 135.584 253.448 134.419 256.648L120.814 251.689Z" fill="#1F28CF"/>
<path d="M119.996 259.193C119.9 259.088 119.785 259.002 119.657 258.94C119.528 258.878 119.39 258.841 119.249 258.832C119.108 258.823 118.969 258.842 118.839 258.888C118.709 258.933 118.591 259.004 118.493 259.097L115.957 261.482C115.363 262.654 114.847 263.865 114.41 265.107L140.102 279.94C140.102 279.94 142.905 277.399 140.891 275.904C138.876 274.409 137.565 273.384 137.565 273.384L128.522 261.474C128.479 261.419 128.427 261.371 128.366 261.335C128.306 261.299 128.24 261.274 128.171 261.263C128.102 261.251 128.032 261.253 127.965 261.269C127.899 261.284 127.837 261.313 127.783 261.352L126.002 262.664C126.002 262.664 123.498 262.389 122.249 261.668L119.996 259.193Z" fill="#E4E4E4"/>
<path d="M150.986 271.45C150.849 271.404 150.704 271.386 150.56 271.397C150.416 271.409 150.275 271.45 150.147 271.517C150.019 271.585 149.906 271.678 149.815 271.79C149.725 271.903 149.657 272.033 149.618 272.172L148.6 275.772C148.674 277.19 148.834 278.603 149.081 280.001H179.162C179.162 280.001 180.335 276.11 177.808 275.801C175.281 275.492 173.608 275.241 173.608 275.241L159.629 268.979C159.564 268.95 159.494 268.934 159.423 268.933C159.351 268.932 159.28 268.945 159.214 268.971C159.148 268.998 159.088 269.038 159.037 269.088C158.986 269.138 158.946 269.198 158.919 269.264L158.019 271.453C156.822 272.027 155.538 272.398 154.219 272.553L150.986 271.45Z" fill="#E4E4E4"/>
<path d="M169.811 210.627C169.811 224.851 163.082 258.027 163.078 261.163L148.6 261.174C148.6 261.174 151.779 216.765 150.854 216.287C149.929 215.809 112.96 219.992 101.872 219.992C85.8844 219.992 79.2704 209.87 78.7334 191.12H110.406C116.855 191.813 150.493 198.62 162.985 200.965C168.333 201.968 169.811 206.708 169.811 210.627Z" fill="#2B44FF"/>
<path d="M144.143 188.281L127.296 181.267L131.057 171.938L148.069 184.476C152.119 185.494 156.01 187.063 159.634 189.138C160.365 189.807 161.249 191.161 158.216 190.927C155.183 190.693 151.983 190.583 151.565 191.627C151.147 192.671 152.981 193.907 152.136 195.308C152.099 195.372 152.045 195.425 151.98 195.46C151.915 195.496 151.841 195.512 151.767 195.508C150.77 195.507 148.229 193.098 144.143 188.281ZM132.843 136.155L153.059 130.063C156.304 127.431 159.895 125.256 163.73 123.598C164.702 123.414 166.312 123.521 164.3 125.812C162.288 128.103 160.276 130.603 160.85 131.563C161.424 132.523 163.517 131.8 164.123 133.321C164.527 134.336 161.061 135.062 153.723 135.5L138.004 144.787L132.843 136.155Z" fill="#B28B67"/>
<path d="M104.636 138.163C113.896 155.507 127.292 168.804 146.713 182.628L139.355 190.953C117.668 182.86 106.223 177.974 100.605 161.588C99.197 157.474 98.2103 144.363 97.3674 137.466L104.636 138.163Z" fill="#2026A2"/>
<path d="M78.7333 195.939H119.8C119.8 195.939 105.846 153.217 105.544 137.296C105.533 136.755 104.538 135.802 104.098 135.926C99.2663 137.296 93.7583 134.902 93.7583 134.902C84.0223 150.621 80.6563 169.974 78.7333 195.939Z" fill="#F2F2F2"/>
<path d="M77.7204 204.998C74.4174 182.732 83.0983 151.858 91.1448 136.287C91.3469 135.787 91.692 135.357 92.1371 135.052C92.5822 134.747 93.1075 134.58 93.6472 134.571H99.6899L99.6975 134.595C101.734 134.611 104 134.69 106.471 134.774C117.575 135.142 132.823 135.508 149.935 129.998L152 140.35C136.187 150.55 120.18 158.452 106.155 157.33C108.5 173.998 108 204.998 98.518 204.998H77.7204Z" fill="#1F28CF"/>
</svg>
